name analog
datacolumns 19
datarows 32
range 0.6075 0.623
endheader
time	ground_force_vx	ground_force_vy	ground_force_vz	ground_force_px	ground_force_py	ground_force_pz	l_ground_force_vx	l_ground_force_vy	l_ground_force_vz	l_ground_force_px	l_ground_force_py	l_ground_force_pz	ground_torque_x	ground_torque_y	ground_torque_z	l_ground_torque_x	l_ground_torque_y	l_ground_torque_z
0.6075	-0.0	-0.0	-0.0	-1.1713863611221311	30.416746139526367	-581.0113525390625	36.5662956237793	-38.82884216308594	-605.615966796875	-0.0	-0.0	-0.0	-0.0	-0.0	-0.0	178058.140625	-12658.12890625	7844.40966796875
0.608	-0.0	-0.0	-0.0	-3.5800204277038574	29.668834686279297	-548.4442138671875	29.244993209838867	-32.26686096191406	-599.6563110351562	-0.0	-0.0	-0.0	-0.0	-0.0	-0.0	177195.765625	-11313.4970703125	5541.98193359375
0.6085	-0.0	-0.0	-0.0	-6.356990814208984	27.549840927124023	-510.4414367675781	19.884130477905277	-26.929630279541016	-577.1268310546875	-0.0	-0.0	-0.0	-0.0	-0.0	-0.0	171165.984375	-9436.5908203125	2540.921875
0.609	-0.0	-0.0	-0.0	-9.339665412902832	25.573535919189453	-469.538818359375	12.843215942382812	-23.512157440185547	-547.6029663085938	-0.0	-0.0	-0.0	-0.0	-0.0	-0.0	162112.96875	-7196.10400390625	246.7178497314453
0.6095	-0.0	-0.0	-0.0	-12.34996509552002	22.883769989013672	-427.2241516113281	8.975118637084961	-23.754831314086918	-517.2288818359375	-0.0	-0.0	-0.0	-0.0	-0.0	-0.0	153560.59375	-5242.55712890625	-795.4537353515625
0.61	-0.0	-0.0	-0.0	-15.009995460510254	20.237598419189453	-385.2891540527344	6.502926349639893	-25.885814666748047	-492.22845458984375	-0.0	-0.0	-0.0	-0.0	-0.0	-0.0	146083.65625	-3607.766357421875	-1365.175048828125
0.6105	-0.0	-0.0	-0.0	-16.576642990112305	16.856185913085938	-349.8651428222656	3.664296865463257	-31.164949417114254	-475.5444946289063	-0.0	-0.0	-0.0	-0.0	-0.0	-0.0	139943.484375	-2570.163818359375	-2035.37939453125
0.611	-0.0	-0.0	-0.0	-17.167444229125977	14.071454048156738	-318.2590637207031	1.624064803123474	-38.08038711547852	-462.7332458496094	-0.0	-0.0	-0.0	-0.0	-0.0	-0.0	135552.34375	-1381.1947021484375	-2416.614990234375
0.6115	-0.0	-0.0	-0.0	-17.546527862548828	11.475625038146973	-290.20465087890625	1.1032154560089111	-45.12308883666992	-450.7731323242188	-0.0	-0.0	-0.0	-0.0	-0.0	-0.0	131696.59375	-973.0740966796876	-2385.361083984375
0.612	-0.0	-0.0	-0.0	-16.560062408447266	8.751792907714844	-268.77374267578125	0.8258601427078247	-50.81369018554688	-444.7110900878906	-0.0	-0.0	-0.0	-0.0	-0.0	-0.0	128698.046875	-532.0587158203125	-2190.743408203125
0.6125	-0.0	-0.0	-0.0	-15.533581733703612	6.969378471374512	-250.71438598632807	1.3082932233810425	-55.2841911315918	-438.68701171875	-0.0	-0.0	-0.0	-0.0	-0.0	-0.0	126210.2578125	-172.5978546142578	-1983.900390625
0.613	-0.0	-0.0	-0.0	-13.331520080566406	5.999963760375977	-235.9928741455078	1.7576947212219238	-58.70102691650391	-434.846435546875	-0.0	-0.0	-0.0	-0.0	-0.0	-0.0	124828.6953125	109.43433380126952	-1632.211669921875
0.6135	-0.0	-0.0	-0.0	-11.336454391479492	4.962959289550781	-223.30577087402344	2.700150728225708	-60.93633270263672	-433.4499816894531	-0.0	-0.0	-0.0	-0.0	-0.0	-0.0	124348.921875	143.058837890625	-1320.6671142578125
0.614	-0.0	-0.0	-0.0	-8.978021621704102	4.395849227905273	-214.6334381103516	3.4926583766937256	-62.37697219848633	-434.1683349609375	-0.0	-0.0	-0.0	-0.0	-0.0	-0.0	123892.8359375	277.9217834472656	-971.9340209960938
0.6145	-0.0	-0.0	-0.0	-7.126136779785156	3.5759103298187256	-208.7152404785156	4.591087341308594	-63.3375358581543	-435.6982116699219	-0.0	-0.0	-0.0	-0.0	-0.0	-0.0	124602.7578125	425.8941345214844	-656.0850830078125
0.615	-0.0	-0.0	-0.0	-5.045706748962402	3.486702442169189	-204.71815490722656	6.0259857177734375	-63.12206268310547	-439.51416015625	-0.0	-0.0	-0.0	-0.0	-0.0	-0.0	125390.40625	328.5038452148437	-382.8547058105469
0.6155	-0.0	-0.0	-0.0	-3.482073307037353	3.355337858200073	-200.6783905029297	7.28090238571167	-61.93082809448242	-442.1532897949219	-0.0	-0.0	-0.0	-0.0	-0.0	-0.0	126245.84375	144.6656036376953	-227.62435913085935
0.616	-0.0	-0.0	-0.0	-1.784210205078125	4.081652641296387	-198.9129943847656	8.959789276123047	-60.02669906616211	-443.2268676757813	-0.0	-0.0	-0.0	-0.0	-0.0	-0.0	127057.5078125	128.5667724609375	-49.30366897583008
0.6165	-0.0	-0.0	-0.0	-0.6720061898231506	4.338439464569092	-197.5835418701172	9.541736602783203	-57.70231246948242	-446.0202331542969	-0.0	-0.0	-0.0	-0.0	-0.0	-0.0	127952.90625	-89.73886108398438	-10.233521461486816
0.617	-0.0	-0.0	-0.0	0.3775256276130676	4.951903343200684	-199.5876007080078	10.556583404541016	-54.717323303222656	-448.8968505859375	-0.0	-0.0	-0.0	-0.0	-0.0	-0.0	128875.0	46.1128044128418	10.210003852844238
0.6175	-0.0	-0.0	-0.0	1.1116397380828855	5.376985549926758	-196.91815185546875	10.861814498901367	-52.784969329833984	-451.45306396484375	-0.0	-0.0	-0.0	-0.0	-0.0	-0.0	129810.390625	171.0489501953125	-117.30735778808594
0.618	-0.0	-0.0	-0.0	2.2111878395080566	6.170403480529785	-195.7776336669922	10.833163261413574	-50.1069564819336	-453.9793395996094	-0.0	-0.0	-0.0	-0.0	-0.0	-0.0	131182.40625	390.9664306640625	-242.33493041992188
0.6185	-0.0	-0.0	-0.0	2.84460186958313	6.507517814636231	-195.50515747070312	10.368791580200195	-48.309661865234375	-457.8194274902344	-0.0	-0.0	-0.0	-0.0	-0.0	-0.0	132194.203125	262.0301818847656	-383.5934448242188
0.619	-0.0	-0.0	-0.0	4.035236358642578	6.743767261505127	-194.44546508789065	10.280158042907717	-46.49428939819336	-462.1629333496094	-0.0	-0.0	-0.0	-0.0	-0.0	-0.0	133607.390625	634.4163818359375	-610.89013671875
0.6195	-0.0	-0.0	-0.0	4.807363033294678	6.615226268768311	-194.1697540283203	9.442578315734863	-45.42621612548828	-464.875244140625	-0.0	-0.0	-0.0	-0.0	-0.0	-0.0	135156.125	504.8559875488281	-812.6007080078125
0.62	-0.0	-0.0	-0.0	5.382345676422119	6.407471179962158	-196.01486206054688	8.978734970092773	-43.85677719116211	-472.9858703613281	-0.0	-0.0	-0.0	-0.0	-0.0	-0.0	136725.421875	506.9451904296875	-1135.3861083984375
0.6205	-0.0	-0.0	-0.0	5.967255115509033	5.585694789886475	-197.54568481445312	7.905346393585205	-43.15016555786133	-474.262939453125	-0.0	-0.0	-0.0	-0.0	-0.0	-0.0	137970.71875	790.2841796875	-1393.1478271484375
0.621	-0.0	-0.0	-0.0	6.304049968719482	4.9413604736328125	-199.7426605224609	7.254213333129883	-42.88517761230469	-477.8732299804688	-0.0	-0.0	-0.0	-0.0	-0.0	-0.0	139110.140625	1104.2296142578125	-1396.5877685546875
0.6215	-0.0	-0.0	-0.0	6.968148231506348	4.179409503936768	-204.60671997070312	6.229214668273926	-43.01266479492188	-483.03167724609375	-0.0	-0.0	-0.0	-0.0	-0.0	-0.0	139993.84375	1288.0806884765625	-1605.0233154296875
0.622	-0.0	-0.0	-0.0	6.671487331390381	3.576034545898437	-208.06118774414065	4.888974189758301	-42.72801971435547	-486.1741943359375	-0.0	-0.0	-0.0	-0.0	-0.0	-0.0	141285.8125	1524.9466552734375	-1615.8421630859375
0.6225	-0.0	-0.0	-0.0	6.779998779296875	3.1785149574279785	-216.1841278076172	3.8934364318847656	-42.99307632446289	-488.5018310546875	-0.0	-0.0	-0.0	-0.0	-0.0	-0.0	142226.328125	1496.3634033203125	-2074.736572265625
0.623	-0.0	-0.0	-0.0	6.909053802490234	2.277581691741944	-220.3019256591797	2.868459224700928	-43.522727966308594	-491.6439208984375	-0.0	-0.0	-0.0	-0.0	-0.0	-0.0	143182.015625	1615.0518798828125	-2095.289306640625
